# xmcd CD database file
#
# Track frame offsets:
#	150
#	34140
#	70599
#	108939
#	153037
#	181816
#	212219
#
# Disc length: 3276 seconds
#
# Revision: 0
# Processed by: cddbd v1.5.1PL0 Copyright (c) Steve Scherf et al.
# Submitted via: CDex 1.51
#
DISCID=510cca07
DTITLE=Keith Jarrett - Live in Paris - Whisper Not
DYEAR=1999
DGENRE=Jazz
TTITLE0=Bouncing With Bud
TTITLE1=Wisper Not
TTITLE2=Groovin' High
TTITLE3=Chelsea Bridge
TTITLE4=Wrap Your Troubles In Dreams
TTITLE5=Round Midnight
TTITLE6=Sandu
EXTD=YEAR: 1999
EXTT0=
EXTT1=
EXTT2=
EXTT3=
EXTT4=
EXTT5=
EXTT6=
PLAYORDER=
